C:\GBW_MyPrograms\KinderuniversiteitApp\Resultaten\Ellis_v10102025\Mars\Mars_v1.mot
version=1
nRows=6
nColumns=29
inDegrees=yes
endheader
                time	         pelvis_tilt	           pelvis_tx	           pelvis_ty	       hip_flexion_l	       hip_flexion_r	        knee_angle_l	        knee_angle_r	       ankle_angle_l	       ankle_angle_r	    lumbar_extension	hamstrings_r/activation	bifemsh_r/activation	glut_max_r/activation	iliopsoas_r/activation	rect_fem_r/activation	  vasti_r/activation	gastroc_r/activation	 soleus_r/activation	tib_ant_r/activation	hamstrings_l/activation	bifemsh_l/activation	glut_max_l/activation	iliopsoas_l/activation	rect_fem_l/activation	  vasti_l/activation	gastroc_l/activation	 soleus_l/activation	tib_ant_l/activation	
          1.94183647	         -8.04445459	          2.56288069	          0.90328409	         30.30347510	         -5.76873605	        -20.37324197	        -26.02424847	          8.83130381	         -2.65409260	          1.61621192	          0.05000013	          0.06194551	          0.05000008	          0.39602094	          0.14053288	          0.05000004	          0.05425233	          0.05459940	          0.17415117	          0.17169088	          0.05000061	          0.14574792	          0.05000008	          0.05000019	          0.07917466	          0.05000004	          0.05000002	          0.23591988	
          1.95478205	         -8.09246684	          2.58260062	          0.90147447	         29.46033838	         -4.93562362	        -20.89343826	        -28.50908288	          8.84295900	         -2.15676288	          1.97151979	          0.05000065	          0.05276476	          0.05000007	          0.32595230	          0.11559273	          0.05000005	          0.05000054	          0.05000011	          0.16373130	          0.14122109	          0.05793811	          0.16018217	          0.05000006	          0.05000007	          0.08896563	          0.05718590	          0.05539391	          0.23076600	
          1.96772762	         -8.14227632	          2.60215761	          0.89951550	         28.63251683	         -3.98527728	        -21.69636054	        -30.89716934	          8.96189335	         -1.72462902	          2.31065569	          0.05000321	          0.05000137	          0.05000001	          0.28220685	          0.14610056	          0.05000007	          0.05000017	          0.05000006	          0.16304240	          0.11615874	          0.05347849	          0.18802414	          0.05000004	          0.05000006	          0.13738002	          0.05000004	          0.05000002	          0.24918511	
          1.98067320	         -8.19510890	          2.62138800	          0.89784346	         27.93780162	         -2.95494465	        -22.70751843	        -33.03068488	          9.27740100	         -1.37643732	          2.61338760	          0.05000041	          0.09664184	          0.05000009	          0.24661002	          0.18484235	          0.05000004	          0.05000045	          0.05000009	          0.16274299	          0.09554418	          0.05000060	          0.19673870	          0.05000005	          0.05000011	          0.19704433	          0.05000042	          0.05000011	          0.22731291	
          1.99361878	         -8.25034488	          2.64027088	          0.89679580	         27.33562034	         -1.87352531	        -23.86303671	        -34.81173234	          9.87745436	         -1.06317328	          2.87654227	          0.05000080	          0.16202523	          0.05000006	          0.21135902	          0.19983841	          0.05000003	          0.05000085	          0.05000009	          0.16403299	          0.07858807	          0.05000108	          0.19747200	          0.05000007	          0.05000011	          0.24598407	          0.07748942	          0.08577427	          0.18697213	
          2.00656435	         -8.30816000	          2.65883774	          0.89659784	         26.66830536	         -0.74792040	        -24.85079770	        -36.23239324	         10.50437430	         -0.75828168	          3.10501298	          0.06551540	          0.22033868	          0.05000006	          0.17845062	          0.20467200	          0.05000003	          0.05000986	          0.05000010	          0.16481915	          0.06533972	          0.06458788	          0.18064843	          0.05000007	          0.05000009	          0.27584980	          0.10145362	          0.11617279	          0.15591163	
